PathFileType	4	(X/Y/Z)	E:\Qualisys_Data\Carbon_Farble_Plate\Data\Amateur_Runner\S2\T3\S2T3V23_c3d.trc
DataRate	CameraRate	NumFrames	NumMarkers	Units	OrigDataRate	OrigDataStartFrame	OrigNumFrames
200.000000	200.000000	4	39	mm	200.000000	79	317
Frame#	Time	LSHO			RSHO			LICST			RICST			LASIS			LHEEL			RASIS			LTROC			RTROC			SACR			LTH1			LSK4			LTH2			LTH3			RHM5			LSK2			LTH4			RTH1			LTOE			RTH2			RTH3			RTH4			LLEP			RLEP			LSK1			LSK3			RSK1			LHM5			RSK2			LFT1			RSK3			RSK4			LLME			RLME			RTOE			RHEEL			RFT1			RFT2			LFT2			
		X1	Y1	Z1	X2	Y2	Z2	X3	Y3	Z3	X4	Y4	Z4	X5	Y5	Z5	X6	Y6	Z6	X7	Y7	Z7	X8	Y8	Z8	X9	Y9	Z9	X10	Y10	Z10	X11	Y11	Z11	X12	Y12	Z12	X13	Y13	Z13	X14	Y14	Z14	X15	Y15	Z15	X16	Y16	Z16	X17	Y17	Z17	X18	Y18	Z18	X19	Y19	Z19	X20	Y20	Z20	X21	Y21	Z21	X22	Y22	Z22	X23	Y23	Z23	X24	Y24	Z24	X25	Y25	Z25	X26	Y26	Z26	X27	Y27	Z27	X28	Y28	Z28	X29	Y29	Z29	X30	Y30	Z30	X31	Y31	Z31	X32	Y32	Z32	X33	Y33	Z33	X34	Y34	Z34	X35	Y35	Z35	X36	Y36	Z36	X37	Y37	Z37	X38	Y38	Z38	X39	Y39	Z39	

80	0.395	-1671.407104492188	1527.759643554688	-408.4717712402344	-1580.320922851562	1509.934204101562	-121.5167617797852	-1656.978271484375	1060.587036132812	-396.8335571289062	-1620.496337890625	1050.755737304688	-100.8169250488281	-1598.569580078125	1012.137451171875	-379.8515930175781	-1514.799926757812	138.5029296875	-278.9105834960938	-1570.734130859375	998.1903686523438	-125.1572494506836	-1717.585815429688	937.2765502929688	-399.1920166015625	-1731.908447265625	977.5995483398438	-83.74530029296875	-1734.27587890625	1099.81103515625	-235.3596801757812	-1508.7060546875	729.8055419921875	-408.0181274414062	-1527.635620117188	342.5640869140625	-373.3241882324219	-1586.438110351562	700.8075561523438	-402.4137573242188	-1471.635986328125	637.4132690429688	-381.85400390625	-2241.1494140625	271.1450805664062	-108.9971771240234	-1533.198364257812	439.9170532226562	-389.6851806640625	-1550.446899414062	609.7845458984375	-376.6486206054688	-1718.1455078125	690.6216430664062	-86.67608642578125	-1277.35400390625	204.3209075927734	-329.5501708984375	-1786.64404296875	726.6407470703125	-84.14364624023438	-1762.166137695312	601.8803100585938	-95.80078125	-1832.607666015625	640.9525146484375	-100.145622253418	-1500.675415039062	578.9078369140625	-375.8528137207031	-1830.003051757812	599.5585327148438	-93.56800842285156	-1456.641845703125	446.6427307128906	-381.8828735351562	-1449.176635742188	347.4898986816406	-369.6935424804688	-1918.819091796875	510.9638366699219	-85.37796020507812	-1334.296264648438	156.7235565185547	-377.5003356933594	-1956.757690429688	581.6575927734375	-85.7382583618164	-1492.77490234375	118.4983596801758	-249.9400177001953	-2007.72998046875	462.4328308105469	-92.44821166992188	-2042.323608398438	532.9442138671875	-99.35616302490234	-1463.227905273438	165.1533966064453	-339.2994995117188	-2189.458984375	402.2564697265625	-125.6408157348633	-2207.001953125	205.4746551513672	-157.9770660400391	-2199.9169921875	457.1219177246094	-187.3817749023438	-2216.491455078125	441.5884094238281	-222.421630859375	-2228.977783203125	457.5796203613281	-173.0084838867188	-1503.783447265625	105.5722122192383	-301.4208068847656
81	0.4	-1651.214599609375	1525.931274414062	-409.5789489746094	-1560.955932617188	1509.174194335938	-122.6650085449219	-1637.566772460938	1058.8876953125	-397.1907653808594	-1600.445068359375	1050.33935546875	-100.5528182983398	-1578.471557617188	1010.805480957031	-379.6402587890625	-1487.82958984375	134.2872161865234	-279.3065795898438	-1550.756713867188	997.45654296875	-125.1759796142578	-1698.166381835938	935.3803100585938	-398.4535217285156	-1711.63818359375	975.3272094726562	-83.4657211303711	-1714.545654296875	1098.244506835938	-235.4958343505859	-1491.33837890625	724.6874389648438	-409.4268188476562	-1505.974243164062	338.801513671875	-372.9762573242188	-1569.51220703125	697.0386962890625	-402.2437744140625	-1456.257446289062	631.7552490234375	-382.1437683105469	-2225.66162109375	282.3972778320312	-108.1758346557617	-1513.645141601562	436.8690185546875	-389.1684875488281	-1535.75439453125	605.5401611328125	-376.3342895507812	-1695.55419921875	689.1355590820312	-86.49348449707031	-1252.725341796875	206.8566436767578	-328.6344909667969	-1764.134399414062	724.66943359375	-83.7371597290039	-1738.938354492188	599.736083984375	-95.616943359375	-1809.613647460938	638.6128540039062	-99.976318359375	-1483.981201171875	574.8724975585938	-375.2590026855469	-1806.940673828125	597.0344848632812	-93.71278381347656	-1436.50390625	444.5312805175781	-380.9171142578125	-1427.84765625	345.4664611816406	-369.3437194824219	-1897.678100585938	511.4207763671875	-85.72687530517578	-1307.628784179688	157.6184539794922	-376.7127380371094	-1932.591064453125	583.0331420898438	-85.95101928710938	-1465.413330078125	114.8177490234375	-250.676025390625	-1986.73388671875	465.1668395996094	-90.20087432861328	-2020.169189453125	537.349365234375	-100.4509506225586	-1437.314697265625	162.7009582519531	-339.1370544433594	-2171.982666015625	412.2257690429688	-126.644889831543	-2193.29345703125	215.1261901855469	-156.3169860839844	-2181.257080078125	467.7659912109375	-190.0550689697266	-2198.336181640625	451.4614562988281	-224.2376861572266	-2210.73095703125	468.0719909667969	-176.0377044677734	-1476.382202148438	101.5526428222656	-301.9724731445312
82	0.405	-1631.777099609375	1524.037231445312	-410.7676391601562	-1541.3125	1507.688354492188	-123.7019653320312	-1618.263549804688	1057.093994140625	-396.9493713378906	-1581.323120117188	1049.380004882812	-100.3848648071289	-1558.613891601562	1008.964172363281	-379.7247009277344	-1462.090576171875	131.0422515869141	-279.51806640625	-1530.762329101562	996.6657104492188	-125.0870971679688	-1678.35986328125	933.5498046875	-397.1378784179688	-1691.123291015625	973.0635986328124	-83.47972106933594	-1696.6123046875	1097.169799804688	-236.5082702636719	-1473.299560546875	719.718505859375	-410.0426330566406	-1484.520141601562	335.7736511230469	-372.4839172363281	-1553.426879882812	693.3048095703125	-403.2013854980469	-1439.988159179688	626.4432373046875	-382.7335510253906	-2208.521728515625	293.9549255371094	-107.0176696777344	-1494.092041015625	433.3177185058594	-387.8113098144531	-1519.714111328125	601.133056640625	-375.7794494628906	-1671.825561523438	687.1083374023438	-85.81822967529297	-1229.240844726562	208.4455261230469	-326.5303039550781	-1741.530883789062	722.004638671875	-83.63459777832031	-1715.218994140625	597.4154052734375	-95.23653411865234	-1786.567016601562	635.57080078125	-99.82907104492188	-1467.574951171875	571.4471435546875	-374.8976440429688	-1783.109252929688	594.6936645507812	-93.53910064697266	-1417.37646484375	442.5086975097656	-380.0748901367188	-1406.645629882812	343.4028015136719	-368.523193359375	-1875.532958984375	510.9898376464844	-85.43001556396484	-1282.732543945312	158.1220855712891	-375.6075744628906	-1907.929809570312	583.8800659179688	-86.1164321899414	-1440.51171875	111.7641830444336	-250.7536468505859	-1967.577514648438	468.6714172363281	-90.9941177368164	-1997.126098632812	541.0830688476562	-100.980842590332	-1412.5078125	160.9410400390625	-339.2525024414062	-2152.927734375	421.4496459960938	-127.5439376831055	-2179.080078125	225.2443084716797	-154.1999816894531	-2161.038818359375	476.3019714355469	-191.3426666259766	-2177.282470703125	459.5805358886719	-225.7474365234375	-2189.66845703125	477.7565612792969	-178.3342590332031	-1450.8681640625	98.27136993408205	-302.3259887695312
83	0.41	-1612.08154296875	1521.39501953125	-412.0966186523438	-1521.711303710938	1506.089965820312	-124.7952499389648	-1598.968383789062	1055.261474609375	-396.7792358398438	-1561.888671875	1047.90771484375	-100.5271377563477	-1539.439086914062	1007.515625	-379.7117004394531	-1439.068237304688	127.6489791870117	-280.0521240234375	-1510.564453125	995.1032104492188	-124.6055145263672	-1659.007690429688	931.65673828125	-396.2829895019531	-1670.849731445312	970.1172485351562	-83.61805725097656	-1674.81689453125	1094.800048828125	-235.3238372802734	-1456.767333984375	715.0393676757812	-411.7730407714844	-1464.052490234375	332.6391296386719	-371.8119201660156	-1536.592895507812	688.83642578125	-403.6457824707031	-1423.809204101562	621.3607788085938	-382.8787536621094	-2191.8095703125	305.2514343261719	-105.4518356323242	-1474.769287109375	429.4986572265625	-386.2774658203125	-1504.449096679688	597.4111938476562	-375.8884887695312	-1649.350219726562	684.474365234375	-85.46971893310547	-1206.0908203125	209.5088958740234	-324.4177551269531	-1719.134643554688	719.0073852539062	-83.26273345947266	-1691.166015625	594.422119140625	-94.48889923095705	-1762.419067382812	632.1278686523438	-99.57113647460938	-1450.015014648438	567.6951293945312	-374.1999206542969	-1759.146240234375	591.32275390625	-93.189697265625	-1398.445678710938	440.256103515625	-379.0097961425781	-1384.884155273438	341.7747192382812	-367.440673828125	-1852.423706054688	511.1007690429688	-85.5433349609375	-1258.981567382812	158.5550231933594	-374.5741577148438	-1883.404174804688	584.4878540039062	-87.02877807617188	-1416.543212890625	108.4343490600586	-251.2463531494141	-1946.001831054688	471.9430847167969	-90.90502166748048	-1973.74951171875	544.916259765625	-101.5621643066406	-1388.929565429688	159.1128234863281	-339.2088317871094	-2133.61474609375	430.3622741699219	-129.0685272216797	-2165.4287109375	234.9107666015625	-152.6419372558594	-2138.6474609375	484.5073547363281	-192.5037384033203	-2155.814697265625	468.0813293457031	-227.1072082519531	-2168.580078125	487.7722778320312	-180.2295532226562	-1425.06201171875	95.23370361328124	-301.9053039550781
